<svg xmlns="http://www.w3.org/2000/svg" height="54" width="209" viewBox="-239.17305 -111.46175 2072.8331 668.7705"><path d="M201.084.44c3.2-.69 6.51-.35 9.76-.4 16 .04 32.01.05 48.01-.02 3.58.05 7.77.19 10.32 3.11 1.91 1.91 1.74 4.78 1.83 7.27.09 134.01.02 268.02-.11 402.03-.16 7.21 1.43 15.1-2.36 21.67-1.85 3.42-6.06 3.45-9.43 3.77-8.72.64-17.5 1.74-26.23.73-2.98-.56-6.54-1-8.43-3.68-2.77-3.97-4.48-8.69-7.9-12.2-1.05-1.43-3.3-1.34-4.45-.09-3.05 2.63-5.69 5.79-9.22 7.83-11.38 6.85-24.31 10.87-37.41 12.79-12.06 2.22-24.37 2.74-36.62 2.55-17.98.42-36.18-1.98-53.09-8.25-12.56-5.15-24.81-11.86-34.23-21.81-8.16-7.74-15.12-16.79-20.15-26.87-13.79-25.63-18.71-54.99-20.26-83.75-.87-8.28.02-16.63-.9-24.91-.5-4.6-.01-9.2.33-13.78.22-15.74 1.85-31.45 4.49-46.97 3.27-16.8 7.95-33.54 16.17-48.65 6.12-11.07 14.86-20.37 24.16-28.82 14.82-12.25 32.92-20.13 51.61-24.26 18.97-4.16 38.48-5.59 57.87-5.14 14.09-.52 28.08 1.53 42.13 1.99.49-5.03.15-10.1.22-15.15.05-28.66-.1-57.32.07-85.98.67-4.36-.12-10.05 3.82-13.01m-56.75 173.68c-15.58 1.68-31.85 3.86-45.36 12.41-9.92 6.23-14.32 17.83-17.48 28.56-7.33 27.47-6.29 56.16-6.12 84.32-.03 15.56 1.14 31.25 5.38 46.28 3.38 11.26 8.81 22.24 17.45 30.4 6.73 5.85 15.63 8.33 24.21 9.99 23.92 4.24 48.41 2.65 72.4-.11 1.54-.28 4.08-.53 4.12-2.57 1.32-21.29 1.13-42.65 1.37-63.97.01-29.67.01-59.34-.38-89.01-.75-17.31.17-34.7-1.51-51.96.17-1.34-.69-2.31-1.96-2.56-7.68-2.08-15.73-1.93-23.61-2.48-9.51-.64-19.02.21-28.51.7zm1333.13-124.97c12.55-2.36 25.24-5.02 38.07-4.52 4.72.33 11.52 1.83 11.59 7.76.26 19.94-.08 39.9.09 59.85 18.15.91 36.4-.05 54.58.44 5.07.36 9.37 4.75 9.8 9.79 1.22 11.28.97 22.7.09 34-.17 6.69-6.76 11.41-13.05 11.63-17.13.66-34.33-.43-51.43.51-.12 7.28.13 14.57-.64 21.83-.13 57.99 0 115.99-.09 173.99.16 6.64 1.52 14.02 6.74 18.64 3.57 3.43 8.77 4.4 13.57 3.97 11.38-1.03 22.64-3.39 34.08-3.85 3.86.05 8.84.32 11.05 4.04 1.27 4.28 1.28 8.82 1.95 13.23 1.21 7.83.82 16.22-2.6 23.47-3.26 6.53-10.76 8.61-17.11 10.84-21.42 6.92-44.46 11.11-66.88 7.06-16.04-2.88-31.5-11.34-40.97-24.83-5.44-7.57-9.04-16.43-10.51-25.63-2.77-15.14-2.75-30.65-1.61-45.95-.52-10.03 1.26-19.97.82-29.99-.27-12.99.65-26.02-.75-38.96-.23-13.67.1-27.36-.16-41.03-1.24-12.87-.16-25.82-.81-38.71-.97-8.98-.14-18.03-.81-27.01-9.13-1.38-18.44-.28-27.63-.64-9.38.53-18.66-1.15-28.03-.81-6.05.31-12.04-4.57-12.14-10.79-.46-10.34-.02-20.71-.2-31.06-.18-4.17.76-9.33 5.05-11.18 5.5-2.27 11.58-.74 17.33-.55 7.33.17 14.68.28 22-.42 8.28-.49 16.58.11 24.86-.22 1.37-12.48-.46-25.16 1.03-37.66.42-6.73.12-14.6 5.41-19.65 4.38-4.97 11.11-6.32 17.31-7.59zm-288.71 69.31c21.04-6.3 43.2-8.31 65.08-7.15 18.05 1.32 36.27 4.52 52.69 12.44 18.93 8.68 35.3 22.89 46.39 40.55 9.25 13.87 15.04 29.73 19.22 45.79 5.34 22 7 44.76 6.55 67.34-.29 6.98 1.37 14.78-2.88 20.92-1.82 3.08-5.5 4.23-8.89 4.12-56.69-.02-113.38-.01-170.07-.01-7.03.13-14.06-.26-21.07.13-1.16 13.69.53 27.69 5.18 40.63 5.02 15.06 18.5 24.81 31.5 32.71 8.98 5.84 20.09 5.54 30.35 6.55 31.42.9 62.72-2.41 94.03-4.54 6.88-.42 13.89-1.43 20.74-.23 6.12 2.12 9.57 8.55 10.52 14.65 1.52 9.79 2.67 19.97.52 29.75-1.17 5.83-6.59 9.48-11.85 11.33-8.98 3.18-18.25 5.79-27.79 6.49-13.66 1.66-27.41 2.16-41.14 2.86-5.66-.12-11.31.11-16.95.6-13.67.29-27.36.24-41.04.22-7.72-.09-15.51.07-23.14-1.23-19.4-4.27-37.19-14.01-53.01-25.82-12.71-9.84-24.64-21.2-32.96-35.07-10.79-18.65-14.37-40.3-17.32-61.33-1.15-11.9-2.54-23.8-2.53-35.77-.96-7.62-.69-15.3-.69-22.96-.56-21.54 2.4-43.21 9-63.75 5.55-16.52 13.84-32.3 25.62-45.27 14.13-16.34 33.54-27.37 53.94-33.95m16.19 64.08c-14.76 10.94-22.74 28.61-26.62 46.13-1.36 7.53-3.04 15.15-2.6 22.85 18.69.57 37.42.07 56.12.24 24.02-.18 48.07.35 72.08-.25.6-6.03-.13-12.1-.85-18.09-1.51-12.17-4.98-24.27-11.4-34.81-7.33-12.26-19.61-21.41-33.55-24.63-17.84-4.13-38.09-2.62-53.18 8.56zm-411.55-66.59c2.3-2.74 6.18-2.52 9.43-2.59 15.67.15 31.34-.09 47.01.11 4.09-.1 8.43 2.31 9.44 6.48.96 6.32.43 12.87 1.83 19.12l.97 1.25c4.2-.72 7.74-3.27 11.48-5.13 18.05-8.56 36.37-17.34 56.24-20.64 12.29-1.57 24.71-1.57 37.07-1.08 17.64 1.41 36.12 3.85 51.27 13.74 6.92 4.28 11.73 10.98 16.74 17.23 14.93 18.84 20.93 43.32 21.36 67-.12 72.34-.04 144.68-.03 217.03.36 5.74-4.26 10.62-9.72 11.63-10.07 2.13-20.44.82-30.64 1.18-7.31-.34-14.78.83-21.96-.86-6.92-1.67-9.53-9.33-10.37-15.6-.88-9.43.08-18.93-.47-28.38-.97-9.98-.37-20.01-.53-30.01-.01-49.33-.07-98.66-.02-147.99.24-11.68-1.49-24.24-8.85-33.72-3.42-4.63-8.93-7.06-14.26-8.72-8.65-2.25-17.59-3.58-26.54-3.25-22.13-.59-44.67 4.35-63.69 15.92-3.01 2.07-7.14 4.39-6.49 8.7.06 77.37-.02 154.74.04 232.12.35 6.53-5.16 12.31-11.35 13.53-15.74 2.23-31.66.96-47.47.47-6.1-.45-11.32-5.03-13.49-10.6-2.02-4.9-1.32-10.3-1.4-15.46 0-95.35.03-190.7-.01-286.05.23-5.32.73-11.25 4.41-15.43z" fill="#858688"/><path d="M393.644 192.64c8.69-3.02 18.03-4.1 27.2-4.38 7.73-.23 15.47-.18 23.21-.12 2.19.07 4.37.34 6.54.69 3.46.65 6.95 1.15 10.46 1.52 18.99 3.14 37.25 10.28 53.78 20.07 4.88 3.02 9.92 5.93 14.06 9.95-6.71-2.89-13.46-5.78-20.59-7.46-26.62-6.65-56.79 1.25-75.93 21.13l-.67-.06c-7.89-7.65-17.11-14.24-27.61-17.74-8.82-2.84-17.88-5.64-27.26-5.28-10.89-.45-21.81 1.42-31.86 5.68-1.17-.21-2.34-.42-3.5-.65 3.6-3.58 8.29-5.73 12.61-8.28 8.34-4.34 16.81-8.93 25.99-11.12 1.03.06 1.92-.27 2.67-.99 2.24-1.31 4.87-1.82 7.43-2.02 1.23.04 2.41-.33 3.47-.94z" fill="#006cb5"/><path d="M432.374 234.04c19.14-19.88 49.31-27.78 75.93-21.13 7.13 1.68 13.88 4.57 20.59 7.46 6.12 3.64 11.19 8.8 16.43 13.59 24.01 24.06 48.23 47.93 72.17 72.07-5.57 6.29-12.66 10.99-19.99 14.96-17.56 8.2-37.99 11.26-56.83 5.86-7.39-1.77-14.18-5.21-21.07-8.29-1.73-.81-3.28-1.93-4.74-3.14-12.19-10.09-22.81-21.87-34.11-32.91-16.13-16.15-32.5-32.09-48.38-48.47z" fill="#00aff0"/><path d="M344.974 216.64c10.05-4.26 20.97-6.13 31.86-5.68 9.38-.36 18.44 2.44 27.26 5.28 10.5 3.5 19.72 10.09 27.61 17.74-11.82 11.29-22.71 23.49-34.43 34.88-8.55 8.45-16.93 17.07-25.52 25.48-8.08 7.83-19.55 11.9-30.76 11-18.26-1.27-34.48-16.56-36.64-34.76-2.06-12.1 2.82-24.7 11.35-33.28 4.15-4.15 8.53-8.07 13.03-11.83 5.22-3.28 10.71-6.12 16.24-8.83z" fill="#ea5044"/><path d="M340.814 215.94l.66.05c1.16.23 2.33.44 3.5.65-5.53 2.71-11.02 5.55-16.24 8.83 3.3-3.96 7.84-6.68 12.08-9.53z" fill="#858688"/><path d="M677.714 246.29c7.5-7.33 17.8-11.17 28.13-12.01 6.51.76 13.28 1.67 18.93 5.29 9.5 5.02 16.84 14.02 19.72 24.38 4.53 13.5.23 29.34-10.01 39.13-5.94 5.68-11.87 11.5-18.78 16-7.8 3.7-15.81 7.15-24.31 8.85-24.45 5.17-51.05-1.78-69.75-18.36-1.22-1.14-1.89-2.68-2.58-4.15 19.78-19.47 38.96-39.56 58.65-59.13z" fill="#ffcc2a"/><path d="M617.494 306.03c.39-.15 1.18-.45 1.57-.61.69 1.47 1.36 3.01 2.58 4.15 18.7 16.58 45.3 23.53 69.75 18.36 8.5-1.7 16.51-5.15 24.31-8.85-2.71 3.14-6.39 5.14-9.78 7.43-19.07 12.52-40.86 20.7-63.34 24.43-8.24.8-16.43 2.33-24.74 1.84-7.72.49-15.31-.97-22.96-1.71-19.45-2.99-38.46-9.27-55.61-18.98-6.95-3.87-13.88-8.04-19.67-13.53 6.89 3.08 13.68 6.52 21.07 8.29 18.84 5.4 39.27 2.34 56.83-5.86 7.33-3.97 14.42-8.67 19.99-14.96z" fill="#a9cf46"/></svg>